{
  "accessors": [
    {
      "bufferView": 2,
      "componentType": 5126,
      "count": 1980,
      "max": [
        6.2083940505981445,
        1.4571881294250488,
        2.1462945938110352
      ],
      "min": [
        -4.936424732208252,
        -0.075155735015869141,
        -2.8658256530761719
      ],
      "type": "VEC3"
    },
    {
      "bufferView": 2,
      "byteOffset": 23760,
      "componentType": 5126,
      "count": 1980,
      "max": [
        0.9991832971572876,
        0.53957301378250122,
        0.99979442358016968
      ],
      "min": [
        -0.99928426742553711,
        -0.22500048577785492,
        -0.99996268749237061
      ],
      "type": "VEC3"
    },
    {
      "bufferView": 3,
      "componentType": 5126,
      "count": 1980,
      "max": [
        0.9999958872795105,
        0.21299590170383453,
        0.9999995231628418,
        1
      ],
      "min": [
        -0.99964064359664917,
        -0.24171121418476105,
        -0.99999874830245972,
        1
      ],
      "type": "VEC4"
    },
    {
      "bufferView": 1,
      "componentType": 5126,
      "count": 1980,
      "max": [
        0.9921875,
        0.99195164442062378
      ],
      "min": [
        0.0078125,
        0.0078124925494194031
      ],
      "type": "VEC2"
    },
    {
      "bufferView": 1,
      "byteOffset": 15840,
      "componentType": 5126,
      "count": 1980,
      "max": [
        0.9921875,
        0.99195164442062378
      ],
      "min": [
        0.0078125,
        0.0078124925494194031
      ],
      "type": "VEC2"
    },
    {
      "bufferView": 1,
      "byteOffset": 31680,
      "componentType": 5126,
      "count": 1980,
      "max": [
        0.9921875,
        0.99195164442062378
      ],
      "min": [
        0.0078125,
        0.0078124925494194031
      ],
      "type": "VEC2"
    },
    {
      "bufferView": 0,
      "componentType": 5125,
      "count": 5940,
      "max": [
        1979
      ],
      "min": [
        0
      ],
      "type": "SCALAR"
    },
    {
      "bufferView": 2,
      "byteOffset": 47520,
      "componentType": 5126,
      "count": 544,
      "max": [
        1.5768816471099854,
        1.119956374168396,
        3.124394416809082
      ],
      "min": [
        -2.45452880859375,
        -0.089662671089172363,
        -4.4789628982543945
      ],
      "type": "VEC3"
    },
    {
      "bufferView": 2,
      "byteOffset": 54048,
      "componentType": 5126,
      "count": 544,
      "max": [
        0.96237033605575562,
        0.99162083864212036,
        0.99999904632568359
      ],
      "min": [
        -0.96237015724182129,
        -0.94158279895782471,
        -0.99999904632568359
      ],
      "type": "VEC3"
    },
    {
      "bufferView": 3,
      "byteOffset": 31680,
      "componentType": 5126,
      "count": 544,
      "max": [
        0.96677148342132568,
        0.99999958276748657,
        0.65214335918426514,
        1
      ],
      "min": [
        -0.99830716848373413,
        -0.99999994039535522,
        -0.84354758262634277,
        1
      ],
      "type": "VEC4"
    },
    {
      "bufferView": 1,
      "byteOffset": 47520,
      "componentType": 5126,
      "count": 544,
      "max": [
        0.72381329536437988,
        0.88993322849273682
      ],
      "min": [
        0.0078125,
        0.0078125
      ],
      "type": "VEC2"
    },
    {
      "bufferView": 1,
      "byteOffset": 51872,
      "componentType": 5126,
      "count": 544,
      "max": [
        0.72381329536437988,
        0.88993322849273682
      ],
      "min": [
        0.0078125,
        0.0078125
      ],
      "type": "VEC2"
    },
    {
      "bufferView": 1,
      "byteOffset": 56224,
      "componentType": 5126,
      "count": 544,
      "max": [
        0.72381329536437988,
        0.88993322849273682
      ],
      "min": [
        0.0078125,
        0.0078125
      ],
      "type": "VEC2"
    },
    {
      "bufferView": 0,
      "byteOffset": 23760,
      "componentType": 5125,
      "count": 1392,
      "max": [
        543
      ],
      "min": [
        0
      ],
      "type": "SCALAR"
    },
    {
      "bufferView": 2,
      "byteOffset": 60576,
      "componentType": 5126,
      "count": 1972,
      "max": [
        6.4599323272705078,
        3.2454009056091309,
        2.2862777709960938
      ],
      "min": [
        -6.6338739395141602,
        -0.023472189903259277,
        -3.3198585510253906
      ],
      "type": "VEC3"
    },
    {
      "bufferView": 2,
      "byteOffset": 84240,
      "componentType": 5126,
      "count": 1972,
      "max": [
        1,
        0.99998664855957031,
        0.97421497106552124
      ],
      "min": [
        -1,
        -0.99998658895492554,
        -0.99581754207611084
      ],
      "type": "VEC3"
    },
    {
      "bufferView": 3,
      "byteOffset": 40384,
      "componentType": 5126,
      "count": 1972,
      "max": [
        0.98258042335510254,
        0.99986803531646729,
        0.99998664855957031,
        1
      ],
      "min": [
        -0.97870999574661255,
        -0.99482506513595581,
        -0.99998664855957031,
        -1
      ],
      "type": "VEC4"
    },
    {
      "bufferView": 1,
      "byteOffset": 60576,
      "componentType": 5126,
      "count": 1972,
      "max": [
        0.97855830192565918,
        0.9143403172492981
      ],
      "min": [
        0.0078125,
        0.0078125
      ],
      "type": "VEC2"
    },
    {
      "bufferView": 1,
      "byteOffset": 76352,
      "componentType": 5126,
      "count": 1972,
      "max": [
        0.97855830192565918,
        0.9143403172492981
      ],
      "min": [
        0.0078125,
        0.0078125
      ],
      "type": "VEC2"
    },
    {
      "bufferView": 1,
      "byteOffset": 92128,
      "componentType": 5126,
      "count": 1972,
      "max": [
        0.97855830192565918,
        0.9143403172492981
      ],
      "min": [
        0.0078125,
        0.0078125
      ],
      "type": "VEC2"
    },
    {
      "bufferView": 0,
      "byteOffset": 29328,
      "componentType": 5125,
      "count": 5106,
      "max": [
        1971
      ],
      "min": [
        0
      ],
      "type": "SCALAR"
    }
  ],
  "asset": {
    "extras": {
      "author": "HBradnam (https://sketchfab.com/HBradnam)",
      "license": "CC-BY-4.0 (http://creativecommons.org/licenses/by/4.0/)",
      "source": "https://sketchfab.com/3d-models/log-scene-6088d068edeb4ad59e244f80087d7e31",
      "title": "Log Scene"
    },
    "generator": "Sketchfab-5.29.0",
    "version": "2.0"
  },
  "bufferViews": [
    {
      "buffer": 0,
      "byteLength": 49752,
      "byteOffset": 0,
      "name": "floatBufferViews",
      "target": 34963
    },
    {
      "buffer": 0,
      "byteLength": 107904,
      "byteOffset": 49752,
      "byteStride": 8,
      "name": "floatBufferViews",
      "target": 34962
    },
    {
      "buffer": 0,
      "byteLength": 107904,
      "byteOffset": 157656,
      "byteStride": 12,
      "name": "floatBufferViews",
      "target": 34962
    },
    {
      "buffer": 0,
      "byteLength": 71936,
      "byteOffset": 265560,
      "byteStride": 16,
      "name": "floatBufferViews",
      "target": 34962
    }
  ],
  "buffers": [
    {
      "byteLength": 337496,
      "uri": "scene.bin"
    }
  ],
  "images": [
    {
      "uri": "textures/lambert1_emissive.png"
    },
    {
      "uri": "textures/lambert1_metallicRoughness.png"
    },
    {
      "uri": "textures/lambert1_normal.png"
    },
    {
      "uri": "textures/lambert1_baseColor.png"
    },
    {
      "uri": "textures/lambert1_0_emissive.png"
    },
    {
      "uri": "textures/lambert1_0_metallicRoughness.png"
    },
    {
      "uri": "textures/lambert1_0_normal.png"
    },
    {
      "uri": "textures/lambert1_0_baseColor.png"
    },
    {
      "uri": "textures/lambert1_1_emissive.png"
    },
    {
      "uri": "textures/lambert1_1_metallicRoughness.png"
    },
    {
      "uri": "textures/lambert1_1_normal.png"
    },
    {
      "uri": "textures/lambert1_1_baseColor.png"
    }
  ],
  "materials": [
    {
      "doubleSided": true,
      "emissiveFactor": [
        1,
        1,
        1
      ],
      "emissiveTexture": {
        "index": 0,
        "texCoord": 0
      },
      "name": "lambert1",
      "normalTexture": {
        "index": 2,
        "scale": 1,
        "texCoord": 0
      },
      "occlusionTexture": {
        "index": 1,
        "strength": 1,
        "texCoord": 0
      },
      "pbrMetallicRoughness": {
        "baseColorFactor": [
          1,
          1,
          1,
          1
        ],
        "baseColorTexture": {
          "index": 3,
          "texCoord": 0
        },
        "metallicFactor": 1,
        "metallicRoughnessTexture": {
          "index": 1,
          "texCoord": 0
        },
        "roughnessFactor": 1
      }
    },
    {
      "doubleSided": true,
      "emissiveFactor": [
        1,
        1,
        1
      ],
      "emissiveTexture": {
        "index": 4,
        "texCoord": 0
      },
      "name": "lambert1_0",
      "normalTexture": {
        "index": 6,
        "scale": 1,
        "texCoord": 0
      },
      "occlusionTexture": {
        "index": 5,
        "strength": 1,
        "texCoord": 0
      },
      "pbrMetallicRoughness": {
        "baseColorFactor": [
          1,
          1,
          1,
          1
        ],
        "baseColorTexture": {
          "index": 7,
          "texCoord": 0
        },
        "metallicFactor": 1,
        "metallicRoughnessTexture": {
          "index": 5,
          "texCoord": 0
        },
        "roughnessFactor": 1
      }
    },
    {
      "doubleSided": true,
      "emissiveFactor": [
        1,
        1,
        1
      ],
      "emissiveTexture": {
        "index": 8,
        "texCoord": 0
      },
      "name": "lambert1_1",
      "normalTexture": {
        "index": 10,
        "scale": 1,
        "texCoord": 0
      },
      "occlusionTexture": {
        "index": 9,
        "strength": 1,
        "texCoord": 0
      },
      "pbrMetallicRoughness": {
        "baseColorFactor": [
          1,
          1,
          1,
          1
        ],
        "baseColorTexture": {
          "index": 11,
          "texCoord": 0
        },
        "metallicFactor": 1,
        "metallicRoughnessTexture": {
          "index": 9,
          "texCoord": 0
        },
        "roughnessFactor": 1
      }
    }
  ],
  "meshes": [
    {
      "name": "pCone25_lambert1_0",
      "primitives": [
        {
          "attributes": {
            "NORMAL": 1,
            "POSITION": 0,
            "TANGENT": 2,
            "TEXCOORD_0": 3,
            "TEXCOORD_1": 4,
            "TEXCOORD_2": 5
          },
          "indices": 6,
          "material": 0,
          "mode": 4
        }
      ]
    },
    {
      "name": "pPlatonic9_lambert1_0",
      "primitives": [
        {
          "attributes": {
            "NORMAL": 8,
            "POSITION": 7,
            "TANGENT": 9,
            "TEXCOORD_0": 10,
            "TEXCOORD_1": 11,
            "TEXCOORD_2": 12
          },
          "indices": 13,
          "material": 1,
          "mode": 4
        }
      ]
    },
    {
      "name": "pCylinder9_lambert1_0",
      "primitives": [
        {
          "attributes": {
            "NORMAL": 15,
            "POSITION": 14,
            "TANGENT": 16,
            "TEXCOORD_0": 17,
            "TEXCOORD_1": 18,
            "TEXCOORD_2": 19
          },
          "indices": 20,
          "material": 2,
          "mode": 4
        }
      ]
    }
  ],
  "nodes": [
    {
      "children": [
        1
      ],
      "name": "RootNode (gltf orientation matrix)",
      "rotation": [
        -0.70710678118654746,
        -0,
        -0,
        0.70710678118654757
      ]
    },
    {
      "children": [
        2
      ],
      "name": "RootNode (model correction matrix)"
    },
    {
      "children": [
        3
      ],
      "matrix": [
        1,
        0,
        0,
        0,
        0,
        0,
        1,
        0,
        0,
        -1,
        0,
        0,
        0,
        0,
        0,
        1
      ],
      "name": "LP-Log.Fbx"
    },
    {
      "children": [
        4,
        6,
        8
      ],
      "name": "RootNode"
    },
    {
      "children": [
        5
      ],
      "name": "pCone25"
    },
    {
      "mesh": 0,
      "name": "pCone25_lambert1_0"
    },
    {
      "children": [
        7
      ],
      "name": "pPlatonic9"
    },
    {
      "mesh": 1,
      "name": "pPlatonic9_lambert1_0"
    },
    {
      "children": [
        9
      ],
      "name": "pCylinder9"
    },
    {
      "mesh": 2,
      "name": "pCylinder9_lambert1_0"
    }
  ],
  "samplers": [
    {
      "magFilter": 9729,
      "minFilter": 9987,
      "wrapS": 10497,
      "wrapT": 10497
    }
  ],
  "scene": 0,
  "scenes": [
    {
      "name": "OSG_Scene",
      "nodes": [
        0
      ]
    }
  ],
  "textures": [
    {
      "sampler": 0,
      "source": 0
    },
    {
      "sampler": 0,
      "source": 1
    },
    {
      "sampler": 0,
      "source": 2
    },
    {
      "sampler": 0,
      "source": 3
    },
    {
      "sampler": 0,
      "source": 4
    },
    {
      "sampler": 0,
      "source": 5
    },
    {
      "sampler": 0,
      "source": 6
    },
    {
      "sampler": 0,
      "source": 7
    },
    {
      "sampler": 0,
      "source": 8
    },
    {
      "sampler": 0,
      "source": 9
    },
    {
      "sampler": 0,
      "source": 10
    },
    {
      "sampler": 0,
      "source": 11
    }
  ]
}

